<svg
        width="319.629"
        height="87.892"
        viewBox="0 0 319.629 87.892"
        xmlns="http://www.w3.org/2000/svg">
    <g id="svgGroup" stroke-linecap="round"
       fill-rule="evenodd" font-size="9pt"
       stroke="#000" stroke-width="0.25mm"
       fill="none"
       style="stroke:#c70000;stroke-width:0.5mm;fill:#ffffff">
        <path d="M 156.104 49.708 L 156.104 84.376 L 152.588 84.376 L 152.588 49.708 A 36.571 36.571 0 0 0 150.995 38.764 A 32.27 32.27 0 0 0 147.949 31.91 Q 143.311 24.073 135.303 19.8 A 36.646 36.646 0 0 0 120.019 15.603 A 43.918 43.918 0 0 0 117.432 15.528 A 34.035 34.035 0 0 0 100.098 20.069 Q 92.236 24.61 87.744 32.349 A 33.017 33.017 0 0 0 83.252 49.219 A 33.615 33.615 0 0 0 85.181 60.621 A 32.229 32.229 0 0 0 88.502 67.393 A 28.472 28.472 0 0 0 90.454 70.045 A 36.103 36.103 0 0 0 98.169 77.003 A 34.716 34.716 0 0 0 107.593 81.446 A 35.639 35.639 0 0 0 117.871 82.96 A 27.7 27.7 0 0 0 128.809 80.762 L 128.809 84.376 Q 123.389 86.28 117.676 86.28 A 40.183 40.183 0 0 1 106.177 84.62 Q 100.586 82.96 95.825 79.712 Q 91.064 76.465 87.451 72.046 Q 83.838 67.628 81.787 61.719 A 37.834 37.834 0 0 1 79.736 49.271 A 42.476 42.476 0 0 1 79.736 49.219 A 37.166 37.166 0 0 1 82.593 34.791 A 36.872 36.872 0 0 1 89.794 23.558 A 35.403 35.403 0 0 1 90.405 22.925 A 35.76 35.76 0 0 1 100.263 15.94 A 41.854 41.854 0 0 1 102.417 14.966 Q 109.473 12.012 117.432 12.012 A 42.623 42.623 0 0 1 130.812 14.087 A 40.141 40.141 0 0 1 132.666 14.747 A 38.269 38.269 0 0 1 142.261 20.043 A 35.033 35.033 0 0 1 144.971 22.339 A 33.853 33.853 0 0 1 152.321 32.49 A 39.697 39.697 0 0 1 153.125 34.278 Q 156.104 41.358 156.104 49.708 Z M 149.072 49.708 L 149.072 84.376 L 145.557 84.376 L 145.557 49.708 A 29.957 29.957 0 0 0 144.454 41.443 A 25.52 25.52 0 0 0 141.87 35.425 Q 138.184 29.2 131.787 25.879 A 29.744 29.744 0 0 0 120.421 22.681 A 36.148 36.148 0 0 0 117.432 22.559 Q 109.863 22.559 103.613 26.148 A 26.152 26.152 0 0 0 93.823 35.84 Q 90.283 41.944 90.283 49.219 Q 90.283 55.469 92.578 60.621 A 25.097 25.097 0 0 0 95.964 66.219 A 21.823 21.823 0 0 0 98.755 69.092 Q 102.637 72.413 107.593 74.244 A 29.699 29.699 0 0 0 117.969 76.075 A 27.138 27.138 0 0 0 128.809 73.78 L 128.809 77.344 A 32.688 32.688 0 0 1 121.757 79.173 A 28.26 28.26 0 0 1 117.871 79.444 A 32.253 32.253 0 0 1 102.344 75.635 A 29.318 29.318 0 0 1 91.016 64.844 A 29.358 29.358 0 0 1 86.772 49.758 A 34.855 34.855 0 0 1 86.768 49.219 A 29.627 29.627 0 0 1 89.136 37.501 A 30.24 30.24 0 0 1 95.057 28.394 A 29.001 29.001 0 0 1 95.557 27.881 A 29.542 29.542 0 0 1 103.877 22.081 A 34.373 34.373 0 0 1 105.322 21.436 A 31.03 31.03 0 0 1 117.432 19.044 Q 126.367 19.044 133.569 22.852 A 28.311 28.311 0 0 1 144.922 33.692 A 30.047 30.047 0 0 1 148.95 46.677 A 36.861 36.861 0 0 1 149.072 49.708 Z M 284.912 38.672 L 290.479 38.672 A 26.054 26.054 0 0 1 297.012 39.446 A 18.084 18.084 0 0 1 305.981 44.727 A 20.899 20.899 0 0 1 311.505 57.836 A 27.414 27.414 0 0 1 311.572 59.766 Q 311.572 68.897 305.078 74.879 A 21.33 21.33 0 0 1 296.413 79.632 Q 293.235 80.553 289.453 80.783 A 42.586 42.586 0 0 1 286.865 80.86 A 50.314 50.314 0 0 1 276.608 79.844 A 44.131 44.131 0 0 1 272.266 78.712 A 36.401 36.401 0 0 1 266.229 76.218 A 27.614 27.614 0 0 1 260.986 72.657 L 263.721 70.46 Q 267.725 73.731 273.804 75.538 Q 279.883 77.344 286.865 77.344 A 34.57 34.57 0 0 0 292.83 76.863 Q 298.869 75.803 302.612 72.413 A 16.156 16.156 0 0 0 308.04 60.602 A 21.238 21.238 0 0 0 308.057 59.766 A 20.841 20.841 0 0 0 307.214 53.707 A 16.721 16.721 0 0 0 303.491 47.169 A 14.767 14.767 0 0 0 296.029 42.831 Q 293.483 42.188 290.43 42.188 L 284.912 42.188 A 20.673 20.673 0 0 1 280.805 41.807 Q 276.669 40.967 274.219 38.282 A 13.401 13.401 0 0 1 270.936 31.456 A 18.857 18.857 0 0 1 270.654 28.126 Q 270.654 21.876 275.073 17.969 A 13.859 13.859 0 0 1 279.786 15.299 Q 283.359 14.063 288.33 14.063 Q 294.531 14.063 299.854 15.504 Q 304.895 16.868 308.272 19.35 A 18.375 18.375 0 0 1 308.643 19.629 L 305.859 21.778 Q 299.756 17.579 288.33 17.579 A 29.677 29.677 0 0 0 284.498 17.809 Q 280.287 18.359 277.88 20.226 A 8.477 8.477 0 0 0 277.563 20.484 A 9.443 9.443 0 0 0 274.191 27.397 A 12.648 12.648 0 0 0 274.17 28.126 Q 274.17 32.516 276.286 35.303 A 9.247 9.247 0 0 0 276.685 35.792 A 7.564 7.564 0 0 0 279.808 37.883 Q 281.063 38.352 282.627 38.542 A 18.94 18.94 0 0 0 284.912 38.672 Z M 284.912 45.704 L 290.283 45.704 A 20.425 20.425 0 0 1 294.391 46.09 Q 296.83 46.591 298.683 47.743 A 10.609 10.609 0 0 1 300.977 49.659 Q 304.541 53.614 304.541 59.766 Q 304.541 66.016 300.122 69.922 A 13.859 13.859 0 0 1 295.41 72.593 Q 291.837 73.829 286.865 73.829 A 47.248 47.248 0 0 1 279.448 73.266 A 39.979 39.979 0 0 1 275.317 72.388 A 30.479 30.479 0 0 1 271.008 70.893 Q 268.457 69.776 266.504 68.262 L 269.287 66.114 Q 273.647 69.114 280.748 69.97 A 51.181 51.181 0 0 0 286.865 70.313 A 29.677 29.677 0 0 0 290.698 70.083 Q 294.908 69.533 297.315 67.666 A 8.477 8.477 0 0 0 297.632 67.408 A 9.443 9.443 0 0 0 301.005 60.495 A 12.648 12.648 0 0 0 301.025 59.766 A 14.381 14.381 0 0 0 300.668 56.471 A 9.944 9.944 0 0 0 298.486 52.125 A 7.668 7.668 0 0 0 295.298 49.998 Q 294.047 49.536 292.497 49.348 A 18.848 18.848 0 0 0 290.234 49.219 L 284.912 49.219 Q 274.902 49.219 269.263 43.238 A 20.513 20.513 0 0 1 263.747 30.767 A 27.456 27.456 0 0 1 263.623 28.126 Q 263.623 18.995 270.117 13.013 A 21.33 21.33 0 0 1 278.783 8.26 Q 281.961 7.339 285.742 7.109 A 42.586 42.586 0 0 1 288.33 7.032 A 50.145 50.145 0 0 1 298.576 8.047 A 43.765 43.765 0 0 1 302.905 9.18 A 36.331 36.331 0 0 1 308.924 11.674 A 27.7 27.7 0 0 1 314.16 15.235 L 311.426 17.432 A 25.094 25.094 0 0 0 306.313 14.234 A 34.27 34.27 0 0 0 301.367 12.354 Q 295.313 10.547 288.33 10.547 A 34.57 34.57 0 0 0 282.365 11.029 Q 276.326 12.089 272.583 15.479 A 16.156 16.156 0 0 0 267.155 27.29 A 21.238 21.238 0 0 0 267.139 28.126 A 20.96 20.96 0 0 0 267.954 34.105 A 16.581 16.581 0 0 0 271.729 40.748 A 14.821 14.821 0 0 0 279.03 45.007 Q 281.44 45.638 284.313 45.698 A 29.081 29.081 0 0 0 284.912 45.704 Z M 290.82 35.157 L 284.912 35.157 Q 281.152 35.157 279.492 33.228 Q 277.832 31.299 277.832 28.126 Q 277.832 21.094 288.33 21.094 A 53.608 53.608 0 0 1 293.492 21.326 Q 298.905 21.851 302.333 23.568 A 14.162 14.162 0 0 1 303.174 24.024 L 300.342 26.172 A 12.007 12.007 0 0 0 298.161 25.453 Q 295.796 24.886 292.171 24.701 A 75.371 75.371 0 0 0 288.33 24.61 A 29.884 29.884 0 0 0 286.513 24.661 Q 283.855 24.824 282.742 25.506 A 2.656 2.656 0 0 0 282.69 25.538 A 3.337 3.337 0 0 0 281.813 26.336 Q 281.285 27.041 281.252 27.997 A 3.73 3.73 0 0 0 281.25 28.126 A 5.695 5.695 0 0 0 281.334 29.136 Q 281.436 29.703 281.663 30.152 A 2.874 2.874 0 0 0 282.031 30.713 A 2.175 2.175 0 0 0 282.843 31.297 Q 283.551 31.605 284.652 31.637 A 8.95 8.95 0 0 0 284.912 31.641 L 290.967 31.641 A 33.337 33.337 0 0 1 297.79 32.313 A 27.17 27.17 0 0 1 302.856 33.887 A 25.498 25.498 0 0 1 308.485 37.131 A 21.868 21.868 0 0 1 311.572 40.015 A 27.267 27.267 0 0 1 316.797 48.951 A 31.486 31.486 0 0 1 318.582 58.514 A 36.033 36.033 0 0 1 318.604 59.766 Q 318.604 64.454 317.285 68.653 Q 315.967 72.852 313.306 76.368 A 27.401 27.401 0 0 1 306.909 82.447 A 26.873 26.873 0 0 1 301.974 85.095 A 34.768 34.768 0 0 1 298.022 86.451 A 39.102 39.102 0 0 1 290.535 87.751 A 46.932 46.932 0 0 1 286.865 87.891 A 55.061 55.061 0 0 1 273.402 86.284 A 49.661 49.661 0 0 1 269.214 85.035 A 42.622 42.622 0 0 1 261.463 81.485 A 33.883 33.883 0 0 1 255.518 77.051 L 258.35 74.952 A 31.37 31.37 0 0 0 265.557 79.775 A 40.73 40.73 0 0 0 270.825 81.91 A 50.014 50.014 0 0 0 284.221 84.315 A 57.584 57.584 0 0 0 286.865 84.376 A 40.049 40.049 0 0 0 293.608 83.831 A 31.679 31.679 0 0 0 298.95 82.447 A 27.978 27.978 0 0 0 303.852 80.168 A 21.649 21.649 0 0 0 307.837 77.149 Q 311.328 73.78 313.208 69.337 A 24.142 24.142 0 0 0 315.081 60.404 A 27.624 27.624 0 0 0 315.088 59.766 A 29.088 29.088 0 0 0 314.124 52.163 A 25.186 25.186 0 0 0 312.354 47.486 A 21.472 21.472 0 0 0 304.716 39.01 A 25.843 25.843 0 0 0 304.028 38.575 A 23.074 23.074 0 0 0 295.383 35.491 A 30.164 30.164 0 0 0 290.82 35.157 Z M 284.912 52.735 L 290.283 52.735 Q 294.043 52.735 295.703 54.688 Q 297.363 56.641 297.363 59.766 Q 297.363 66.797 286.865 66.797 A 54.076 54.076 0 0 1 281.68 66.566 Q 276.272 66.043 272.849 64.341 A 14.139 14.139 0 0 1 271.973 63.868 L 274.805 61.719 A 11.989 11.989 0 0 0 276.989 62.439 Q 279.36 63.005 283.003 63.191 A 76.162 76.162 0 0 0 286.865 63.282 A 29.884 29.884 0 0 0 288.682 63.231 Q 291.34 63.068 292.454 62.386 A 2.656 2.656 0 0 0 292.505 62.354 A 3.337 3.337 0 0 0 293.383 61.555 Q 293.91 60.851 293.943 59.895 A 3.73 3.73 0 0 0 293.945 59.766 Q 293.945 58.432 293.393 57.55 A 3.006 3.006 0 0 0 293.14 57.203 Q 292.334 56.251 290.186 56.251 L 284.912 56.251 A 35.621 35.621 0 0 1 277.835 55.575 A 28.966 28.966 0 0 1 272.729 54.053 A 26.063 26.063 0 0 1 267.24 51.068 A 21.777 21.777 0 0 1 263.794 47.999 Q 260.303 44.141 258.447 39.063 A 30.993 30.993 0 0 1 256.637 29.938 A 35.901 35.901 0 0 1 256.592 28.126 Q 256.592 23.438 257.91 19.239 Q 259.229 15.04 261.89 11.524 Q 264.551 8.008 268.286 5.445 A 26.873 26.873 0 0 1 273.221 2.797 A 34.768 34.768 0 0 1 277.173 1.441 A 39.102 39.102 0 0 1 284.66 0.141 A 46.932 46.932 0 0 1 288.33 0.001 A 55.011 55.011 0 0 1 301.513 1.541 A 49.363 49.363 0 0 1 305.957 2.857 A 42.479 42.479 0 0 1 313.795 6.469 A 33.934 33.934 0 0 1 319.629 10.84 L 316.797 12.94 A 31.445 31.445 0 0 0 309.599 8.116 A 40.644 40.644 0 0 0 304.346 5.982 A 49.708 49.708 0 0 0 291.105 3.583 A 57.465 57.465 0 0 0 288.33 3.516 A 40.049 40.049 0 0 0 281.588 4.061 A 31.679 31.679 0 0 0 276.245 5.445 A 27.978 27.978 0 0 0 271.343 7.723 A 21.649 21.649 0 0 0 267.358 10.743 Q 263.867 14.112 261.987 18.555 A 24.142 24.142 0 0 0 260.115 27.487 A 27.624 27.624 0 0 0 260.107 28.126 A 29.294 29.294 0 0 0 261.038 35.629 A 25.033 25.033 0 0 0 262.891 40.528 Q 265.674 46.046 271.387 49.39 A 24.102 24.102 0 0 0 279.788 52.34 A 31.989 31.989 0 0 0 284.912 52.735 Z M 142.041 49.708 L 142.041 84.376 L 138.525 84.376 L 138.525 49.708 A 23.343 23.343 0 0 0 137.695 43.318 A 17.567 17.567 0 0 0 132.617 35.035 A 20.308 20.308 0 0 0 121.595 29.889 A 27.994 27.994 0 0 0 117.432 29.59 A 21.242 21.242 0 0 0 109.773 30.93 A 19.198 19.198 0 0 0 103.076 35.303 A 18.829 18.829 0 0 0 97.316 48.964 A 23.191 23.191 0 0 0 97.314 49.219 A 24.575 24.575 0 0 0 97.804 54.222 A 19.789 19.789 0 0 0 99.048 58.155 A 18.086 18.086 0 0 0 101.241 61.916 A 15.016 15.016 0 0 0 103.76 64.503 Q 106.738 66.895 110.425 68.14 Q 114.111 69.385 118.213 69.385 A 22.849 22.849 0 0 0 128.809 66.797 L 128.809 70.508 A 27.878 27.878 0 0 1 120.007 72.641 A 26.193 26.193 0 0 1 118.164 72.706 Q 113.33 72.706 108.984 71.216 A 24.248 24.248 0 0 1 101.221 66.871 A 19.016 19.016 0 0 1 96.89 61.625 A 23.334 23.334 0 0 1 95.801 59.449 A 23.788 23.788 0 0 1 93.975 52.486 A 29.507 29.507 0 0 1 93.799 49.219 A 22.205 22.205 0 0 1 100.399 33.05 A 26.804 26.804 0 0 1 100.61 32.837 A 22.886 22.886 0 0 1 117.12 26.076 A 29.416 29.416 0 0 1 117.432 26.075 A 29.651 29.651 0 0 1 124.83 26.966 A 24.933 24.933 0 0 1 130.029 28.931 Q 135.596 31.788 138.818 37.208 A 22.981 22.981 0 0 1 141.876 46.585 A 28.833 28.833 0 0 1 142.041 49.708 Z M 166.479 61.011 Q 162.988 52.881 162.988 43.946 Q 162.988 35.01 166.479 26.88 Q 169.971 18.751 175.854 12.867 Q 181.738 6.983 189.868 3.492 Q 197.998 0.001 206.934 0.001 Q 215.869 0.001 223.999 3.492 Q 232.129 6.983 238.013 12.867 Q 243.896 18.751 247.388 26.88 Q 250.879 35.01 250.879 43.946 Q 250.879 52.881 247.388 61.011 Q 243.896 69.141 238.013 75.025 Q 232.129 80.909 223.999 84.4 Q 215.869 87.891 206.934 87.891 Q 197.998 87.891 189.868 84.4 Q 181.738 80.909 175.854 75.025 Q 169.971 69.141 166.479 61.011 Z M 169.702 28.248 Q 166.504 35.743 166.504 43.946 Q 166.504 52.149 169.702 59.644 A 41.092 41.092 0 0 0 176.681 70.815 A 38.615 38.615 0 0 0 178.32 72.559 A 40.273 40.273 0 0 0 190.307 80.769 A 45.93 45.93 0 0 0 191.235 81.177 Q 198.73 84.376 206.934 84.376 Q 215.137 84.376 222.632 81.177 A 41.092 41.092 0 0 0 233.802 74.199 A 38.615 38.615 0 0 0 235.547 72.559 A 40.273 40.273 0 0 0 243.757 60.573 A 45.93 45.93 0 0 0 244.165 59.644 Q 247.363 52.149 247.363 43.946 Q 247.363 35.743 244.165 28.248 A 41.092 41.092 0 0 0 237.186 17.077 A 38.615 38.615 0 0 0 235.547 15.333 A 40.273 40.273 0 0 0 223.561 7.123 A 45.93 45.93 0 0 0 222.632 6.714 Q 215.137 3.516 206.934 3.516 Q 198.73 3.516 191.235 6.714 A 41.092 41.092 0 0 0 180.065 13.693 A 38.615 38.615 0 0 0 178.32 15.333 A 40.273 40.273 0 0 0 170.111 27.319 A 45.93 45.93 0 0 0 169.702 28.248 Z M 131.494 84.376 L 131.494 49.708 A 16.238 16.238 0 0 0 131.038 45.745 A 11.009 11.009 0 0 0 127.637 40.04 Q 123.779 36.622 117.432 36.622 A 12.844 12.844 0 0 0 108.203 40.333 A 12.607 12.607 0 0 0 105.28 44.479 A 11.963 11.963 0 0 0 104.346 49.219 A 18.868 18.868 0 0 0 104.541 51.996 A 14.349 14.349 0 0 0 105.127 54.468 A 13.059 13.059 0 0 0 106.016 56.532 A 9.879 9.879 0 0 0 107.251 58.326 A 11.367 11.367 0 0 0 110.449 60.865 A 14.703 14.703 0 0 0 114.331 62.305 A 19.568 19.568 0 0 0 117.487 62.716 A 22.925 22.925 0 0 0 118.652 62.745 Q 124.219 62.745 128.809 60.01 L 128.809 63.526 Q 124.072 66.016 118.604 66.016 A 23.112 23.112 0 0 1 113.564 65.481 A 20.721 20.721 0 0 1 111.987 65.064 A 17.963 17.963 0 0 1 106.348 62.183 A 12.378 12.378 0 0 1 103.296 58.771 A 15.8 15.8 0 0 1 102.319 56.91 A 16.945 16.945 0 0 1 101.057 52.462 A 22.273 22.273 0 0 1 100.83 49.219 A 15.76 15.76 0 0 1 102.589 41.769 A 16.191 16.191 0 0 1 105.566 37.794 Q 110.303 33.106 117.432 33.106 A 22.788 22.788 0 0 1 123.01 33.754 A 16.371 16.371 0 0 1 130.151 37.525 A 14.522 14.522 0 0 1 134.697 45.981 A 21.21 21.21 0 0 1 135.01 49.708 L 135.01 84.376 L 131.494 84.376 Z M 170.02 43.946 A 36.082 36.082 0 0 0 174.976 62.452 Q 179.932 70.948 188.428 75.904 A 36.082 36.082 0 0 0 206.934 80.86 A 36.082 36.082 0 0 0 225.439 75.904 Q 233.936 70.948 238.892 62.452 A 36.082 36.082 0 0 0 243.848 43.946 A 36.082 36.082 0 0 0 238.892 25.44 Q 233.936 16.944 225.439 11.988 A 36.082 36.082 0 0 0 206.934 7.032 A 36.082 36.082 0 0 0 188.428 11.988 Q 179.932 16.944 174.976 25.44 A 36.082 36.082 0 0 0 170.02 43.946 Z M 176.172 30.958 A 32.858 32.858 0 0 0 173.535 43.946 A 32.858 32.858 0 0 0 176.172 56.934 A 33.946 33.946 0 0 0 181.665 65.867 A 31.659 31.659 0 0 0 183.276 67.603 Q 187.744 72.071 193.945 74.708 A 32.858 32.858 0 0 0 206.934 77.344 A 32.858 32.858 0 0 0 219.922 74.708 A 33.946 33.946 0 0 0 228.854 69.214 A 31.659 31.659 0 0 0 230.591 67.603 Q 235.059 63.135 237.695 56.934 A 32.858 32.858 0 0 0 240.332 43.946 A 32.858 32.858 0 0 0 237.695 30.958 A 33.946 33.946 0 0 0 232.202 22.025 A 31.659 31.659 0 0 0 230.591 20.289 Q 226.123 15.821 219.922 13.184 A 32.858 32.858 0 0 0 206.934 10.547 A 32.858 32.858 0 0 0 193.945 13.184 A 33.946 33.946 0 0 0 185.013 18.678 A 31.659 31.659 0 0 0 183.276 20.289 Q 178.809 24.756 176.172 30.958 Z M 47.363 84.376 L 26.66 43.946 L 47.363 3.516 L 51.27 3.516 L 30.566 43.946 L 51.27 84.376 L 47.363 84.376 Z M 70.947 84.376 L 50.293 43.946 L 70.947 3.516 L 74.854 3.516 L 54.199 43.946 L 74.854 84.376 L 70.947 84.376 Z M 63.086 84.376 L 42.432 43.946 L 63.086 3.516 L 66.992 3.516 L 46.338 43.946 L 66.992 84.376 L 63.086 84.376 Z M 55.225 84.376 L 34.57 43.946 L 55.225 3.516 L 59.131 3.516 L 38.477 43.946 L 59.131 84.376 L 55.225 84.376 Z M 177.051 43.946 A 29.296 29.296 0 0 0 181.055 58.936 Q 185.059 65.821 191.943 69.825 A 29.296 29.296 0 0 0 206.934 73.829 A 29.296 29.296 0 0 0 221.924 69.825 Q 228.809 65.821 232.813 58.936 A 29.296 29.296 0 0 0 236.816 43.946 A 29.296 29.296 0 0 0 232.812 28.956 Q 228.809 22.071 221.924 18.067 A 29.296 29.296 0 0 0 206.934 14.063 A 29.296 29.296 0 0 0 191.943 18.067 Q 185.059 22.071 181.055 28.956 A 29.296 29.296 0 0 0 177.051 43.946 Z M 24.609 3.516 L 24.609 84.376 L 21.094 84.376 L 21.094 3.516 L 24.609 3.516 Z M 17.578 3.516 L 17.578 84.376 L 14.063 84.376 L 14.063 3.516 L 17.578 3.516 Z M 10.547 3.516 L 10.547 84.376 L 7.031 84.376 L 7.031 3.516 L 10.547 3.516 Z M 3.516 3.516 L 3.516 84.376 L 0 84.376 L 0 3.516 L 3.516 3.516 Z M 184.106 30.713 Q 180.566 36.768 180.566 43.946 A 25.75 25.75 0 0 0 184.106 57.178 Q 187.646 63.233 193.701 66.773 Q 199.756 70.313 206.934 70.313 A 25.75 25.75 0 0 0 220.166 66.773 Q 226.221 63.233 229.761 57.178 Q 233.301 51.124 233.301 43.946 A 25.75 25.75 0 0 0 229.761 30.713 Q 226.221 24.659 220.166 21.119 Q 214.111 17.579 206.934 17.579 A 25.75 25.75 0 0 0 193.701 21.119 Q 187.646 24.659 184.106 30.713 Z M 185.889 52.808 Q 184.082 48.585 184.082 43.946 Q 184.082 39.307 185.889 35.084 A 23.085 23.085 0 0 1 190.386 28.179 A 22.111 22.111 0 0 1 190.771 27.784 A 22.947 22.947 0 0 1 197.94 22.958 A 26.004 26.004 0 0 1 198.071 22.901 Q 202.295 21.094 206.934 21.094 Q 211.572 21.094 215.796 22.901 A 23.085 23.085 0 0 1 222.701 27.398 A 22.111 22.111 0 0 1 223.096 27.784 A 22.947 22.947 0 0 1 227.922 34.952 A 26.004 26.004 0 0 1 227.979 35.084 Q 229.785 39.307 229.785 43.946 Q 229.785 48.585 227.979 52.808 A 23.085 23.085 0 0 1 223.481 59.713 A 22.111 22.111 0 0 1 223.096 60.108 A 22.947 22.947 0 0 1 215.928 64.934 A 26.004 26.004 0 0 1 215.796 64.991 Q 211.572 66.797 206.934 66.797 Q 202.295 66.797 198.071 64.991 A 23.085 23.085 0 0 1 191.167 60.493 A 22.111 22.111 0 0 1 190.771 60.108 A 22.947 22.947 0 0 1 185.945 52.94 A 26.004 26.004 0 0 1 185.889 52.808 Z M 193.262 30.274 A 18.607 18.607 0 0 0 187.599 43.696 A 22.489 22.489 0 0 0 187.598 43.946 A 18.607 18.607 0 0 0 193.086 57.44 A 22.507 22.507 0 0 0 193.262 57.618 A 18.607 18.607 0 0 0 206.684 63.28 A 22.489 22.489 0 0 0 206.934 63.282 A 18.607 18.607 0 0 0 220.428 57.793 A 22.507 22.507 0 0 0 220.605 57.618 A 18.607 18.607 0 0 0 226.268 44.196 A 22.489 22.489 0 0 0 226.27 43.946 A 18.607 18.607 0 0 0 220.781 30.452 A 22.507 22.507 0 0 0 220.605 30.274 A 18.607 18.607 0 0 0 207.183 24.611 A 22.489 22.489 0 0 0 206.934 24.61 A 18.607 18.607 0 0 0 193.439 30.098 A 22.507 22.507 0 0 0 193.262 30.274 Z" />
    </g>
</svg>