<svg width="197.201" height="71.702" viewBox="0 0 197.201 71.702" xmlns="http://www.w3.org/2000/svg"><g id="svgGroup" stroke-linecap="round" fill-rule="evenodd" font-size="9pt" stroke="#F17711" stroke-width="0.25mm" style="stroke:#000;stroke-width:0.25mm;fill:#F17711"><path d="M 11.7 70.701 L 0.4 70.701 A 0.453 0.453 0 0 1 0.225 70.67 Q 0 70.576 0 70.201 L 0.2 1.601 A 0.917 0.917 0 0 1 0.217 1.419 Q 0.274 1.137 0.531 1.105 A 0.56 0.56 0 0 1 0.6 1.101 L 11.8 1.101 A 0.453 0.453 0 0 1 11.975 1.132 Q 12.2 1.226 12.2 1.601 L 12.2 25.301 L 27.9 1.501 A 1.236 1.236 0 0 1 28.097 1.29 A 0.769 0.769 0 0 1 28.6 1.101 L 40.1 1.101 A 0.584 0.584 0 0 1 40.197 1.109 Q 40.473 1.155 40.3 1.501 L 23 29.101 L 42.4 70.301 A 0.518 0.518 0 0 1 42.427 70.364 Q 42.543 70.7 41.903 70.701 A 1.693 1.693 0 0 1 41.9 70.701 L 29.7 70.701 A 0.938 0.938 0 0 1 29.481 70.678 Q 29.176 70.604 29.1 70.301 L 15.6 40.901 L 12.1 46.401 L 12.1 70.201 A 0.917 0.917 0 0 1 12.083 70.384 Q 12.026 70.665 11.769 70.697 A 0.56 0.56 0 0 1 11.7 70.701 Z M 158 51.601 L 158 47.001 A 0.72 0.72 0 0 1 158.025 46.803 Q 158.111 46.501 158.5 46.501 L 169.7 46.501 A 0.453 0.453 0 0 1 169.875 46.532 Q 170.1 46.626 170.1 47.001 L 170.1 51.601 Q 170.1 54.901 172.3 57.251 A 7.501 7.501 0 0 0 174.642 58.976 A 6.995 6.995 0 0 0 177.6 59.601 Q 180.7 59.601 182.9 57.201 Q 185.1 54.801 185.1 51.601 A 5.722 5.722 0 0 0 183.705 47.903 Q 182.513 46.446 180.3 45.201 Q 178.7 44.301 175.3 42.401 Q 171.9 40.501 168.9 38.801 Q 163.4 35.601 160.75 30.751 A 21.776 21.776 0 0 1 158.193 22.045 A 26.574 26.574 0 0 1 158.1 19.801 A 19.887 19.887 0 0 1 159.181 13.174 A 18.181 18.181 0 0 1 160.8 9.751 Q 163.5 5.301 167.95 2.701 Q 172.4 0.101 177.6 0.101 Q 182.9 0.101 187.35 2.751 Q 191.8 5.401 194.45 9.851 A 18.964 18.964 0 0 1 197.094 19.288 A 22.53 22.53 0 0 1 197.1 19.801 L 197.1 28.001 A 0.576 0.576 0 0 1 197.08 28.16 Q 197.029 28.337 196.848 28.384 A 0.589 0.589 0 0 1 196.7 28.401 L 185.5 28.401 A 0.576 0.576 0 0 1 185.342 28.381 Q 185.164 28.331 185.117 28.149 A 0.589 0.589 0 0 1 185.1 28.001 L 185 19.801 A 9.094 9.094 0 0 0 184.637 17.172 A 7.219 7.219 0 0 0 182.8 14.101 A 7.522 7.522 0 0 0 180.319 12.417 A 7.128 7.128 0 0 0 177.6 11.901 A 6.956 6.956 0 0 0 172.508 14.036 A 8.944 8.944 0 0 0 172.3 14.251 Q 170.1 16.601 170.1 19.801 A 12.879 12.879 0 0 0 170.314 22.212 Q 170.647 23.961 171.5 25.301 Q 172.872 27.457 176.453 29.421 A 27.497 27.497 0 0 0 176.6 29.501 A 11.632 11.632 0 0 0 176.887 29.667 Q 177.44 29.977 178.55 30.551 Q 180 31.301 181.7 32.251 A 137.694 137.694 0 0 0 183.121 33.035 Q 183.991 33.507 184.75 33.901 Q 186.013 34.556 186.357 34.773 A 2.09 2.09 0 0 1 186.4 34.801 Q 191.4 37.601 194.3 41.651 A 15.265 15.265 0 0 1 196.888 47.929 A 20.742 20.742 0 0 1 197.2 51.601 A 21.028 21.028 0 0 1 196.165 58.277 A 18.986 18.986 0 0 1 194.55 61.851 Q 191.9 66.401 187.45 69.051 Q 183 71.701 177.6 71.701 Q 172.2 71.701 167.75 68.951 Q 163.3 66.201 160.65 61.651 Q 158 57.101 158 51.601 Z M 43.5 70.201 L 55.9 1.501 Q 55.989 1.144 56.318 1.106 A 0.712 0.712 0 0 1 56.4 1.101 L 70.9 1.101 A 0.597 0.597 0 0 1 71.101 1.133 Q 71.275 1.195 71.358 1.378 A 0.726 0.726 0 0 1 71.4 1.501 L 83.3 70.201 Q 83.394 70.671 82.958 70.699 A 0.897 0.897 0 0 1 82.9 70.701 L 71.8 70.701 A 0.468 0.468 0 0 1 71.556 70.64 Q 71.365 70.526 71.3 70.201 L 70.2 62.901 L 56.6 62.901 L 55.5 70.201 Q 55.402 70.69 55.018 70.701 A 0.624 0.624 0 0 1 55 70.701 L 43.9 70.701 Q 43.5 70.701 43.5 70.201 Z M 113.7 51.601 L 113.8 19.901 A 19.634 19.634 0 0 1 115.45 11.844 A 19.085 19.085 0 0 1 116.45 9.901 Q 119.1 5.401 123.6 2.701 Q 128.1 0.001 133.4 0.001 Q 138.8 0.001 143.2 2.701 Q 147.6 5.401 150.25 9.901 A 19.322 19.322 0 0 1 152.9 19.815 A 22.746 22.746 0 0 1 152.9 19.901 L 153 51.601 Q 153 57.101 150.35 61.651 Q 147.7 66.201 143.25 68.951 Q 138.8 71.701 133.4 71.701 Q 128 71.701 123.55 68.951 Q 119.1 66.201 116.4 61.651 Q 113.7 57.101 113.7 51.601 Z M 140.9 51.601 L 140.8 19.901 A 8.588 8.588 0 0 0 140.246 16.775 A 7.852 7.852 0 0 0 138.7 14.301 Q 136.6 12.001 133.4 12.001 A 7.127 7.127 0 0 0 128.204 14.147 A 8.839 8.839 0 0 0 128.1 14.251 Q 125.9 16.501 125.9 19.901 L 125.9 51.601 Q 125.9 54.901 128.1 57.251 A 7.501 7.501 0 0 0 130.442 58.976 A 6.995 6.995 0 0 0 133.4 59.601 A 6.725 6.725 0 0 0 138.039 57.759 A 9.289 9.289 0 0 0 138.65 57.151 A 8.73 8.73 0 0 0 140.302 54.625 A 7.736 7.736 0 0 0 140.9 51.601 Z M 63.1 24.101 L 58.6 52.201 L 68.2 52.201 L 64.1 24.101 L 63.5 20.401 L 63.1 24.101 Z M 104.7 41.801 L 85.4 41.801 A 0.917 0.917 0 0 1 85.218 41.785 Q 84.936 41.727 84.904 41.47 A 0.56 0.56 0 0 1 84.9 41.401 L 84.9 30.501 A 0.453 0.453 0 0 1 84.931 30.326 Q 85.025 30.101 85.4 30.101 L 104.7 30.101 A 0.917 0.917 0 0 1 104.882 30.118 Q 105.164 30.175 105.196 30.432 A 0.56 0.56 0 0 1 105.2 30.501 L 105.2 41.401 A 0.453 0.453 0 0 1 105.169 41.576 Q 105.075 41.801 104.7 41.801 Z" /></g></svg>
